<?xml version="1.0" standalone="no"?>
<!DOCTYPE svg PUBLIC "-//W3C//DTD SVG 20010904//EN"
 "http://www.w3.org/TR/2001/REC-SVG-20010904/DTD/svg10.dtd">
<svg version="1.0" xmlns="http://www.w3.org/2000/svg"
 width="700.000000pt" height="700.000000pt" viewBox="0 0 700.000000 700.000000"
 preserveAspectRatio="xMidYMid meet">
<metadata>
Created by potrace 1.11, written by Peter Selinger 2001-2013
</metadata>
<g transform="translate(0.000000,700.000000) scale(0.100000,-0.100000)"
fill="#000000" stroke="none">
<path d="M3395 6993 c-141 -20 -297 -102 -404 -213 -70 -72 -155 -230 -177
-327 -13 -59 -12 -234 2 -296 59 -265 241 -455 514 -536 41 -12 107 -18 284
-26 71 -3 132 -7 135 -9 3 -2 31 -7 61 -10 62 -7 68 -8 165 -30 118 -28 206
-57 350 -115 75 -30 229 -112 314 -168 375 -244 648 -577 814 -995 26 -64 47
-122 47 -127 0 -6 7 -31 16 -57 9 -25 17 -54 19 -63 2 -9 8 -36 14 -61 37
-166 50 -296 46 -495 -3 -198 -14 -287 -55 -460 -17 -75 -60 -214 -80 -260 -5
-11 -19 -45 -31 -75 -88 -214 -264 -474 -435 -644 -285 -283 -607 -466 -994
-565 -237 -61 -583 -76 -820 -35 -19 3 -48 8 -65 10 -101 17 -304 74 -380 109
-16 7 -58 25 -92 39 -34 14 -79 35 -100 47 -118 65 -154 86 -208 122 -250 166
-472 399 -635 668 -109 179 -241 288 -415 346 -70 23 -97 26 -210 26 -113 0
-140 -3 -207 -25 -336 -111 -535 -429 -483 -771 22 -140 56 -213 211 -447 201
-303 420 -539 747 -806 82 -67 277 -199 402 -271 70 -41 329 -173 339 -173 3
0 29 -11 58 -24 96 -44 349 -131 468 -161 120 -30 315 -69 405 -80 110 -14
149 -18 220 -25 79 -7 512 -5 570 3 17 3 60 7 97 11 56 6 241 36 363 61 128
25 398 111 566 180 481 197 948 526 1274 899 33 38 68 77 78 88 92 97 313 427
411 613 141 269 281 655 331 914 58 304 70 420 70 716 0 191 -10 409 -20 425
-2 3 -6 30 -9 60 -3 30 -8 64 -10 75 -2 11 -11 61 -21 110 -144 769 -580 1512
-1180 2010 -33 28 -62 53 -65 56 -8 9 -190 143 -239 175 -218 143 -453 266
-666 349 -225 87 -467 156 -662 189 -38 7 -238 35 -288 41 -59 7 -405 14 -440
8z"/>
<path d="M3071 4119 c-90 -27 -172 -114 -191 -202 -8 -35 -10 -181 -8 -447 3
-448 1 -433 88 -520 32 -33 61 -51 104 -64 109 -35 124 -30 551 184 210 105
400 206 421 224 61 53 89 116 89 206 0 88 -26 151 -86 205 -22 20 -197 113
-424 226 -363 181 -391 193 -449 196 -33 1 -76 -2 -95 -8z"/>
<path d="M615 4054 c-180 -40 -281 -104 -376 -239 -32 -46 -73 -137 -85 -190
-12 -52 -15 -165 -6 -215 41 -218 181 -375 402 -450 55 -18 217 -21 280 -4
164 44 291 145 365 289 49 95 65 171 60 280 -5 140 -59 266 -154 364 -50 51
-150 121 -174 121 -7 0 -18 5 -23 10 -24 24 -225 48 -289 34z"/>
</g>
</svg>
