<?xml version="1.0" standalone="no"?>
<!DOCTYPE svg PUBLIC "-//W3C//DTD SVG 20010904//EN"
 "http://www.w3.org/TR/2001/REC-SVG-20010904/DTD/svg10.dtd">
<svg version="1.0" xmlns="http://www.w3.org/2000/svg"
 width="700.000000pt" height="700.000000pt" viewBox="0 0 700.000000 700.000000"
 preserveAspectRatio="xMidYMid meet">
<metadata>
Created by potrace 1.11, written by Peter Selinger 2001-2013
</metadata>
<g transform="translate(0.000000,700.000000) scale(0.100000,-0.100000)"
fill="#000000" stroke="none">
<path d="M3395 6993 c-141 -20 -297 -102 -404 -213 -70 -72 -155 -230 -177
-327 -13 -59 -12 -234 2 -296 59 -265 241 -455 514 -536 41 -12 105 -18 285
-26 71 -4 132 -8 135 -10 3 -2 30 -6 60 -9 65 -7 70 -8 180 -34 163 -40 326
-100 470 -174 93 -49 295 -178 335 -215 11 -10 36 -30 55 -44 43 -32 198 -186
242 -241 18 -22 43 -52 56 -66 79 -91 226 -340 285 -482 87 -212 128 -372 157
-615 10 -91 5 -388 -9 -485 -56 -391 -211 -747 -454 -1046 -267 -327 -629
-568 -1032 -686 -216 -63 -340 -81 -570 -82 -219 -1 -299 6 -460 41 -38 8 -78
16 -88 18 -47 10 -220 70 -302 105 -280 119 -515 287 -735 526 -212 229 -373
524 -465 849 -9 33 -19 69 -21 80 -2 11 -6 31 -9 45 -8 40 -14 71 -21 115 -3
22 -8 51 -10 65 -3 14 -6 113 -8 220 -4 215 10 347 58 541 46 182 91 296 219
546 65 126 89 221 89 353 0 91 -5 118 -31 199 -82 246 -273 422 -518 477 -63
14 -232 12 -299 -3 -134 -30 -278 -114 -368 -214 -163 -181 -411 -774 -480
-1144 -60 -317 -71 -438 -70 -735 0 -243 9 -371 39 -541 3 -14 7 -41 9 -60 10
-75 61 -282 103 -419 81 -263 203 -538 336 -759 31 -52 57 -96 57 -98 0 -2 4
-9 10 -16 5 -7 46 -63 90 -126 152 -215 358 -442 560 -616 30 -26 67 -58 81
-70 56 -49 278 -206 351 -250 285 -170 472 -258 738 -349 120 -41 323 -97 397
-110 14 -3 49 -10 77 -15 28 -6 69 -13 90 -16 21 -3 48 -7 60 -10 122 -27 619
-40 811 -21 133 13 299 38 385 58 25 5 59 12 75 15 95 16 420 120 585 188 67
28 287 136 350 172 303 174 530 347 765 580 448 446 781 1039 926 1648 24 102
22 91 42 205 14 74 21 119 43 285 8 62 11 533 3 610 -4 44 -10 107 -14 140 -3
33 -10 83 -15 110 -5 28 -12 68 -16 90 -25 175 -103 450 -195 683 -110 280
-289 596 -468 827 -17 22 -34 45 -38 50 -104 137 -332 371 -488 500 -33 28
-62 53 -65 56 -14 16 -231 172 -299 214 -157 98 -368 211 -501 268 -231 99
-558 198 -767 231 -33 5 -116 19 -123 21 -3 1 -41 5 -85 10 -44 4 -89 9 -100
11 -40 5 -391 12 -420 7z"/>
<path d="M1966 6494 c-116 -27 -245 -115 -320 -217 -31 -42 -82 -149 -92 -193
-12 -56 -12 -210 1 -260 56 -214 213 -370 425 -420 77 -18 220 -11 293 15 148
52 262 152 327 286 46 96 60 163 55 270 -5 110 -10 129 -55 222 -114 233 -377
356 -634 297z"/>
<path d="M3071 4119 c-90 -27 -172 -114 -191 -202 -8 -35 -10 -181 -8 -447 3
-448 1 -433 88 -520 32 -33 61 -51 104 -64 109 -34 123 -30 551 184 210 105
400 206 421 224 61 53 89 116 89 206 0 88 -26 151 -86 205 -22 20 -197 113
-425 226 -362 181 -391 193 -448 196 -34 1 -76 -2 -95 -8z"/>
</g>
</svg>
